<svg width="160" height="40" viewBox="0 0 160 40" fill="none" xmlns="http://www.w3.org/2000/svg">
  <!-- Logo icon -->
  <circle cx="20" cy="20" r="16" fill="#4E56C0"/>
  <path d="M14 13C14 12.4477 14.4477 12 15 12H19C19.5523 12 20 12.4477 20 13V27C20 27.5523 19.5523 28 19 28H15C14.4477 28 14 27.5523 14 27V13Z" fill="white" fill-opacity="0.95"/>
  <path d="M20 13C20 12.4477 20.4477 12 21 12H25C25.5523 12 26 12.4477 26 13V27C26 27.5523 25.5523 28 25 28H21C20.4477 28 20 27.5523 20 27V13Z" fill="white" fill-opacity="0.95"/>
  <rect x="21.5" y="22" width="1.5" height="4" rx="0.5" fill="#4E56C0"/>
  <rect x="23.5" y="19" width="1.5" height="7" rx="0.5" fill="#4E56C0"/>
  <rect x="25.5" y="17" width="1.5" height="9" rx="0.5" fill="#4E56C0"/>
  <path d="M18 12L18 16L19.5 14.5L21 16L21 12" fill="#D78FEE" fill-opacity="0.9"/>
  <rect x="19.5" y="12" width="1" height="16" fill="white" fill-opacity="0.3"/>

  <!-- Text: FinFolio with gradient -->
  <defs>
    <linearGradient id="textGradient" x1="45" y1="12" x2="155" y2="28" gradientUnits="userSpaceOnUse">
      <stop offset="0%" stop-color="#4E56C0"/>
      <stop offset="50%" stop-color="#9b5DE0"/>
      <stop offset="100%" stop-color="#D78FEE"/>
    </linearGradient>
  </defs>
  <text x="45" y="27" font-family="system-ui, -apple-system, sans-serif" font-size="18" font-weight="700" fill="url(#textGradient)">FinFolio</text>
</svg>
